<svg xmlns="http://www.w3.org/2000/svg" viewBox="0 0 64 64">
  <rect width="64" height="64" rx="14" fill="#1A1916"/>
  <path d="M20 14h12c4.5 0 8 1.2 10 3.5 1.8 2 2.7 4.5 2.7 7.3 0 2.5-.7 4.6-2.2 6.3-1 1.2-2.4 2.1-4 2.7v.3c2.2.5 4 1.6 5.3 3.2 1.4 1.7 2.1 4 2.1 6.7 0 3.2-1.1 5.8-3.3 7.8C40.4 53.8 37.2 55 33 55H20V14zm5.8 16.5h7c2.6 0 4.5-.5 5.7-1.6 1.2-1.1 1.8-2.6 1.8-4.5 0-1.9-.6-3.3-1.9-4.3-1.3-1-3.2-1.4-5.7-1.4h-6.9v11.8zm0 4.8V50.3h7.8c2.7 0 4.7-.6 6-1.8 1.3-1.2 2-2.9 2-5s-.7-3.8-2.1-5c-1.4-1.2-3.4-1.8-6.1-1.8h-7.6z" fill="#F5F3EF"/>
  <style>
    @media (prefers-color-scheme: light) {
      rect { fill: #1A1916; }
      path { fill: #F5F3EF; }
    }
    @media (prefers-color-scheme: dark) {
      rect { fill: #F5F3EF; }
      path { fill: #1A1916; }
    }
  </style>
</svg>
